<?xml version="1.0" standalone="no"?>
<!DOCTYPE svg PUBLIC "-//W3C//DTD SVG 20010904//EN"
 "http://www.w3.org/TR/2001/REC-SVG-20010904/DTD/svg10.dtd">
<svg version="1.0" xmlns="http://www.w3.org/2000/svg"
 width="225.000000pt" height="225.000000pt" viewBox="0 0 225.000000 225.000000"
 preserveAspectRatio="xMidYMid meet">

<g transform="translate(0.000000,225.000000) scale(0.100000,-0.100000)"
fill="#000000" stroke="none">
<path d="M0 1125 l0 -1125 1125 0 1125 0 0 1125 0 1125 -1125 0 -1125 0 0
-1125z m625 246 c147 -66 155 -263 14 -346 -75 -44 -194 -12 -245 65 -103 156
63 358 231 281z m249 -57 c23 -9 20 -34 -4 -34 -17 0 -20 -7 -20 -40 0 -36 2
-40 26 -40 31 0 28 -23 -4 -28 -20 -3 -22 -9 -22 -78 0 -67 -2 -74 -20 -74
-18 0 -20 7 -20 75 0 60 -3 75 -15 75 -8 0 -15 7 -15 15 0 8 7 15 15 15 11 0
15 12 15 44 0 59 24 85 64 70z m1012 -55 c10 -17 -13 -36 -27 -22 -12 12 -4
33 11 33 5 0 12 -5 16 -11z m-882 -55 c23 -9 21 -47 -1 -40 -34 10 -47 -10
-51 -78 -4 -56 -7 -66 -23 -66 -17 0 -19 9 -19 91 l0 91 24 -4 c14 -3 31 -1
38 3 16 10 13 10 32 3z m139 -8 c15 -8 27 -11 27 -5 0 5 9 9 20 9 19 0 20 -7
20 -90 0 -83 -1 -90 -20 -90 -12 0 -20 7 -20 17 0 15 -1 15 -18 0 -36 -33 -91
-17 -118 34 -20 40 -11 82 28 114 34 29 43 30 81 11z m227 1 c8 0 27 3 42 7
20 6 31 3 47 -13 18 -18 21 -33 21 -96 0 -68 -2 -75 -20 -75 -18 0 -20 7 -20
70 0 54 -4 72 -15 76 -30 12 -45 -15 -45 -82 0 -57 -2 -64 -20 -64 -17 0 -19
8 -22 72 -3 63 -6 73 -22 76 -30 6 -46 -26 -46 -90 0 -51 -2 -58 -20 -58 -19
0 -20 7 -20 91 l0 91 24 -4 c14 -3 31 -1 38 4 7 4 24 5 38 2 14 -4 32 -7 40
-7z m272 -15 c10 -9 20 -32 24 -50 l7 -32 -73 0 -72 0 14 -22 c18 -28 60 -35
78 -14 16 20 40 21 40 2 0 -22 -40 -46 -78 -46 -47 0 -82 37 -82 89 0 55 8 71
44 87 36 16 73 10 98 -14z m167 3 c19 -19 5 -38 -19 -25 -10 5 -28 10 -40 10
-35 0 -20 -33 17 -41 42 -8 63 -26 63 -52 0 -57 -86 -79 -129 -33 -27 29 -10
47 19 21 24 -22 65 -16 65 10 0 14 -9 21 -34 26 -18 4 -42 16 -53 27 -17 16
-18 23 -8 41 21 40 85 49 119 16z m81 -75 c0 -83 -1 -90 -20 -90 -19 0 -20 7
-20 90 0 83 1 90 20 90 19 0 20 -7 20 -90z m-1059 -160 c6 0 8 4 5 8 -3 5 1 9
9 9 8 0 15 -4 15 -9 0 -4 5 -8 11 -8 5 0 7 6 4 13 -4 6 5 -1 18 -17 18 -21 30
-27 44 -22 14 6 15 4 6 -5 -6 -6 -18 -9 -25 -7 -7 3 -17 6 -23 8 -5 1 -16 6
-22 12 -9 8 -13 7 -14 -3 0 -8 -4 -6 -8 5 -7 17 -8 17 -24 2 -16 -16 -17 -16
-16 11 0 15 3 22 6 16 2 -7 9 -13 14 -13z m119 8 c0 -9 4 -8 10 2 7 12 10 8
10 -14 0 -16 -1 -27 -3 -25 -1 2 -11 14 -21 27 -11 12 -14 22 -8 22 7 0 12 -6
12 -12z m87 2 c10 8 15 10 11 6 -4 -5 0 -14 9 -21 17 -13 10 -36 -10 -34 -9 0
-9 2 1 6 6 2 12 8 12 13 0 13 -26 19 -41 9 -12 -8 -12 -10 1 -19 13 -8 12 -10
-2 -10 -14 0 -18 8 -18 33 0 23 3 28 9 18 8 -13 12 -13 28 -1z m49 1 c-3 -5 1
-11 8 -14 9 -4 17 1 19 11 3 10 5 5 6 -10 0 -16 -1 -28 -3 -28 -2 0 -13 -3
-23 -6 -15 -5 -16 -4 -3 5 13 10 13 13 -3 22 -15 9 -16 29 -1 29 3 0 3 -4 0
-9z m56 -18 c-3 -16 -7 -22 -10 -15 -4 13 4 42 11 42 2 0 2 -12 -1 -27z m42
-10 c-6 -9 -17 -19 -25 -21 -8 -2 -5 2 5 10 13 10 17 21 12 34 -6 15 -5 17 6
6 9 -9 10 -17 2 -29z m37 20 c13 -16 12 -17 -3 -4 -10 7 -18 15 -18 17 0 8 8
3 21 -13z m26 -20 c-3 -10 -5 -4 -5 12 0 17 2 24 5 18 2 -7 2 -21 0 -30z m36
20 c-4 -11 -3 -14 5 -9 7 4 12 1 13 -6 1 -7 5 -2 9 12 l8 25 1 -27 c1 -14 4
-28 9 -31 4 -2 0 -1 -8 1 -8 3 -25 6 -37 6 -26 1 -26 1 -13 27 13 23 22 25 13
2z m112 -3 c7 0 16 6 18 13 3 6 5 -1 5 -18 0 -16 -2 -24 -5 -17 -2 6 -11 12
-18 12 -7 0 -16 -6 -18 -12 -3 -7 -5 1 -5 17 0 17 2 24 5 18 2 -7 11 -13 18
-13z m58 3 c-4 -11 -3 -14 5 -9 7 4 12 1 13 -6 1 -7 5 -2 9 12 l8 25 1 -26 c1
-23 -3 -26 -29 -25 -34 1 -34 1 -20 27 13 23 22 25 13 2z m68 -3 c6 0 7 5 4
10 -3 6 -1 10 4 10 17 0 13 -14 -9 -33 -19 -16 -20 -16 -19 11 0 15 3 21 6 15
2 -7 9 -13 14 -13z m56 -17 c-3 -10 -5 -4 -5 12 0 17 2 24 5 18 2 -7 2 -21 0
-30z m65 10 c4 -13 -1 -18 -18 -18 -12 0 -21 2 -20 5 2 3 6 13 9 23 8 21 22
16 29 -10z m24 18 c-3 -5 1 -11 9 -15 10 -3 15 1 16 12 0 10 3 12 6 5 2 -7 14
-14 26 -14 20 -1 20 -2 3 -6 -11 -3 -26 -11 -34 -19 -7 -8 -19 -14 -25 -14 -7
0 -6 4 3 10 13 9 13 12 -3 21 -15 9 -16 29 -1 29 3 0 3 -4 0 -9z m91 -28 c-3
-10 -5 -4 -5 12 0 17 2 24 5 18 2 -7 2 -21 0 -30z m25 10 c-3 -16 -7 -22 -10
-15 -4 13 4 42 11 42 2 0 2 -12 -1 -27z m42 -10 c-6 -9 -17 -19 -25 -21 -8 -2
-5 2 5 10 13 10 17 21 12 34 -6 15 -5 17 6 6 9 -9 10 -17 2 -29z m37 20 c13
-16 12 -17 -3 -4 -17 13 -22 21 -14 21 2 0 10 -8 17 -17z m26 -20 c-3 -10 -5
-4 -5 12 0 17 2 24 5 18 2 -7 2 -21 0 -30z"/>
<path d="M495 1355 c-74 -26 -125 -113 -111 -187 25 -132 175 -187 277 -101
100 85 71 241 -56 290 -40 15 -62 15 -110 -2z m140 -26 c10 -15 -41 -87 -78
-109 l-32 -20 83 0 c60 0 81 -3 76 -11 -5 -8 -35 -10 -97 -6 l-89 6 21 -23
c47 -50 48 -126 1 -126 -41 0 -67 54 -56 114 5 28 3 35 -11 39 -15 4 -14 5 3
6 14 1 26 12 34 31 19 46 86 110 114 110 14 0 28 -5 31 -11z"/>
<path d="M583 1310 c-30 -18 -87 -89 -78 -98 7 -8 65 39 91 74 32 42 28 49
-13 24z"/>
<path d="M485 1159 c-10 -25 13 -99 30 -99 22 0 19 63 -4 91 -17 21 -20 22
-26 8z"/>
<path d="M1074 1145 c-21 -32 -11 -72 21 -87 34 -15 65 12 65 58 0 54 -57 73
-86 29z"/>
<path d="M1540 1150 c-10 -19 -8 -20 40 -20 51 0 60 6 38 28 -19 19 -66 15
-78 -8z"/>
</g>
</svg>
