<?xml version="1.0" standalone="no"?>
<!DOCTYPE svg PUBLIC "-//W3C//DTD SVG 20010904//EN"
 "http://www.w3.org/TR/2001/REC-SVG-20010904/DTD/svg10.dtd">
<svg version="1.0" xmlns="http://www.w3.org/2000/svg"
 width="261.000000pt" height="193.000000pt" viewBox="0 0 261.000000 193.000000"
 preserveAspectRatio="xMidYMid meet">

<g transform="translate(0.000000,193.000000) scale(0.100000,-0.100000)"
fill="#000000" stroke="none">
<path d="M0 965 l0 -965 1305 0 1305 0 0 965 0 965 -1305 0 -1305 0 0 -965z
m503 -110 c14 -6 17 -14 12 -34 -4 -14 -8 -27 -9 -28 -1 -1 -31 3 -66 9 -125
21 -207 -28 -230 -136 -29 -143 46 -246 178 -246 l52 0 0 70 0 70 -50 0 c-49
0 -50 1 -50 30 l0 30 105 0 105 0 0 -111 0 -110 -38 -16 c-20 -9 -74 -18 -119
-21 -134 -7 -227 36 -278 131 -75 136 -7 309 142 360 49 17 206 18 246 2z
m532 -217 c54 -128 100 -241 103 -251 4 -16 -2 -18 -53 -15 l-58 3 -28 65 -27
65 -103 0 -102 0 -26 -67 c-26 -67 -26 -68 -63 -68 -21 0 -38 3 -38 7 0 5 126
318 184 456 16 36 18 37 65 37 l48 0 98 -232z m534 55 c40 -98 76 -181 80
-185 3 -4 40 76 81 178 l75 184 73 0 72 0 0 -250 0 -250 -55 0 -55 0 -2 191
-3 191 -76 -189 -76 -188 -41 -3 -40 -3 -62 148 c-34 81 -70 166 -80 188 l-18
40 -1 -187 -1 -188 -40 0 -40 0 0 250 0 250 68 0 67 0 74 -177z m882 -63 c54
-129 99 -241 99 -248 0 -9 -15 -12 -56 -10 l-55 3 -31 73 -30 72 -97 0 -97 0
-30 -72 c-29 -70 -32 -73 -67 -76 -20 -2 -37 1 -37 6 0 8 95 243 184 455 15
38 16 38 67 35 l51 -3 99 -235z m-1177 -199 c25 -28 5 -63 -32 -59 -30 3 -42
39 -22 64 17 19 34 18 54 -5z m-434 -266 c0 -43 -4 -75 -10 -75 -6 0 -10 32
-10 75 0 43 4 75 10 75 6 0 10 -32 10 -75z m198 46 c20 -12 11 -44 -15 -56
-12 -5 -24 -19 -26 -30 -2 -11 -5 6 -6 38 -1 48 2 57 17 57 9 0 23 -4 30 -9z
m138 -31 c1 -19 4 -44 8 -55 8 -20 7 -20 -8 -1 -9 11 -16 23 -16 28 0 4 -4 8
-10 8 -5 0 -10 -9 -10 -19 0 -11 -4 -23 -10 -26 -6 -4 -10 15 -10 50 0 56 0
56 28 53 23 -3 27 -8 28 -38z m162 28 c7 -7 12 -27 12 -45 0 -58 -70 -70 -91
-16 -19 50 43 97 79 61z m142 2 c0 -5 -9 -10 -20 -10 -11 0 -20 -4 -20 -10 0
-5 9 -10 20 -10 11 0 20 -4 20 -10 0 -5 -9 -10 -20 -10 -13 0 -20 -7 -20 -20
0 -11 -4 -20 -10 -20 -5 0 -10 23 -10 50 0 49 1 50 30 50 17 0 30 -4 30 -10z
m125 0 c-3 -5 -13 -10 -21 -10 -8 0 -14 -4 -14 -10 0 -5 7 -10 15 -10 8 0 15
-4 15 -10 0 -5 -7 -10 -15 -10 -24 0 -17 -28 8 -33 16 -3 13 -5 -10 -6 l-33
-1 0 50 c0 49 1 50 31 50 17 0 28 -4 24 -10z m125 -1 c0 -5 -4 -7 -10 -4 -5 3
-15 3 -21 -1 -7 -4 -1 -14 16 -28 17 -14 24 -27 20 -38 -7 -18 -42 -31 -50
-18 -3 4 5 10 18 14 22 6 22 6 -6 32 -22 20 -26 29 -16 40 13 16 49 19 49 3z
m120 1 c0 -5 -7 -7 -15 -4 -23 9 -18 -15 7 -35 29 -24 18 -51 -19 -50 -24 2
-25 2 -5 6 28 6 28 20 0 42 -13 11 -19 24 -15 34 7 18 47 24 47 7z m100 -40
c0 -27 -4 -50 -10 -50 -5 0 -10 23 -10 50 0 28 5 50 10 50 6 0 10 -22 10 -50z
m155 26 c23 -35 5 -76 -33 -76 -35 0 -52 16 -52 50 0 52 57 69 85 26z m124
-13 l20 -38 1 38 c0 20 5 37 10 37 6 0 10 -22 10 -50 0 -61 -18 -66 -45 -12
l-19 37 -7 -40 c-6 -40 -6 -40 -8 13 0 28 3 52 9 52 5 0 18 -17 29 -37z m182
-9 c12 -25 17 -49 13 -52 -3 -4 -9 -1 -11 6 -6 14 -49 16 -58 2 -3 -5 -10 -10
-15 -10 -5 0 0 23 12 50 11 28 25 50 30 50 5 0 18 -21 29 -46z m109 0 c0 -36
3 -45 15 -41 8 4 17 2 20 -3 4 -6 -7 -10 -24 -10 -30 0 -31 1 -31 50 0 28 5
50 10 50 6 0 10 -21 10 -46z"/>
<path d="M837 673 c-14 -38 -29 -76 -33 -85 -5 -16 2 -18 66 -18 64 0 71 2 66
18 -23 64 -62 152 -67 152 -3 0 -18 -30 -32 -67z"/>
<path d="M2244 668 c-16 -40 -30 -76 -32 -80 -2 -5 29 -8 68 -8 54 0 71 3 67
13 -43 109 -60 147 -66 147 -5 0 -21 -33 -37 -72z"/>
<path d="M1000 185 c0 -8 7 -15 15 -15 8 0 15 7 15 15 0 8 -7 15 -15 15 -8 0
-15 -7 -15 -15z"/>
<path d="M1140 190 c0 -5 7 -10 15 -10 8 0 15 5 15 10 0 6 -7 10 -15 10 -8 0
-15 -4 -15 -10z"/>
<path d="M1275 180 c-7 -23 10 -50 31 -50 18 0 35 34 28 54 -9 24 -51 20 -59
-4z"/>
<path d="M2040 190 c-8 -14 -8 -26 0 -40 23 -42 72 -9 52 35 -14 30 -37 32
-52 5z"/>
<path d="M2375 187 c-8 -19 -2 -31 13 -26 5 2 6 13 2 24 -7 19 -8 19 -15 2z"/>
</g>
</svg>
