<?xml version="1.0" standalone="no"?>
<!DOCTYPE svg PUBLIC "-//W3C//DTD SVG 20010904//EN"
 "http://www.w3.org/TR/2001/REC-SVG-20010904/DTD/svg10.dtd">
<svg version="1.0" xmlns="http://www.w3.org/2000/svg"
 width="225.000000pt" height="225.000000pt" viewBox="0 0 225.000000 225.000000"
 preserveAspectRatio="xMidYMid meet">

<g transform="translate(0.000000,225.000000) scale(0.100000,-0.100000)"
fill="#000000" stroke="none">
<path d="M0 1125 l0 -1125 1125 0 1125 0 0 1125 0 1125 -1125 0 -1125 0 0
-1125z m900 264 c0 -119 -3 -128 -42 -142 -17 -6 -18 6 -18 155 l0 162 30 -29
c30 -29 30 -29 30 -146z m472 -31 l-3 -128 -25 0 -24 0 0 137 c0 128 1 138 23
161 l22 24 5 -34 c3 -18 4 -90 2 -160z m-382 -10 c0 -52 -3 -68 -14 -68 -8 0
-21 -3 -30 -6 -14 -5 -16 7 -16 97 l0 103 30 -29 c28 -26 30 -34 30 -97z m287
-85 c-3 -2 -16 2 -31 8 -24 11 -26 17 -26 73 0 52 4 64 28 89 l27 28 3 -97 c1
-53 1 -98 -1 -101z m-154 55 c16 15 19 15 28 2 9 -13 10 -12 5 2 -3 9 4 27 14
40 l19 23 1 -42 c0 -41 -1 -43 -29 -43 -17 0 -33 -5 -36 -11 -4 -6 -28 -9 -54
-7 l-46 3 -3 50 -3 50 43 -42 c42 -41 45 -42 61 -25z m387 -358 c0 -13 -7 -20
-20 -20 -13 0 -20 7 -20 20 0 13 7 20 20 20 13 0 20 -7 20 -20z m-264 -60 c24
0 34 -5 34 -15 0 -10 -11 -15 -35 -15 l-35 0 0 -63 c0 -68 10 -87 47 -87 16 0
23 -6 23 -20 0 -38 -79 -17 -99 27 -6 13 -11 51 -11 83 0 47 -3 60 -15 60 -22
0 -19 10 18 48 l32 33 3 -25 c3 -22 8 -26 38 -26z m-577 -15 c13 -13 17 -12
33 2 28 25 87 22 109 -6 25 -31 28 -201 4 -201 -12 0 -15 14 -15 69 0 94 -11
121 -49 121 -45 0 -61 -31 -61 -117 0 -58 -3 -73 -15 -73 -12 0 -15 14 -15 70
0 88 -14 120 -51 120 -43 0 -59 -32 -59 -118 0 -65 -2 -73 -17 -70 -16 3 -18
18 -21 111 -2 88 0 107 12 107 8 0 16 -5 18 -11 2 -6 14 -5 33 6 32 17 71 13
94 -10z m382 -1 c18 -16 19 -16 19 -1 0 10 7 17 15 17 12 0 15 -19 15 -110 0
-91 -3 -110 -15 -110 -8 0 -15 7 -15 15 0 14 -3 14 -30 0 -103 -53 -209 51
-155 154 29 58 120 77 166 35z m299 6 c0 -7 6 -7 19 0 30 15 71 13 71 -5 0 -9
-9 -15 -22 -15 -45 0 -53 -15 -58 -102 -4 -69 -8 -83 -22 -86 -16 -3 -18 7
-18 107 0 92 3 111 15 111 8 0 15 -5 15 -10z m158 -97 c-3 -93 -5 -108 -20
-111 -16 -3 -18 7 -18 107 0 105 1 111 20 111 20 0 21 -5 18 -107z m102 72
c12 -19 25 -35 28 -35 4 0 18 16 31 35 13 20 32 35 43 35 18 0 16 -6 -17 -51
l-36 -50 34 -47 c50 -71 51 -72 28 -72 -13 0 -32 17 -51 46 l-32 45 -31 -45
c-18 -25 -40 -46 -49 -46 -24 0 -23 2 18 61 40 55 40 57 -6 127 -22 32 -22 32
-2 32 12 0 29 -14 42 -35z"/>
<path d="M932 847 c-47 -50 -15 -131 51 -131 50 0 77 27 77 76 0 72 -80 107
-128 55z"/>
</g>
</svg>
