<?xml version="1.0" standalone="no"?>
<!DOCTYPE svg PUBLIC "-//W3C//DTD SVG 20010904//EN"
 "http://www.w3.org/TR/2001/REC-SVG-20010904/DTD/svg10.dtd">
<svg version="1.0" xmlns="http://www.w3.org/2000/svg"
 width="225.000000pt" height="225.000000pt" viewBox="0 0 225.000000 225.000000"
 preserveAspectRatio="xMidYMid meet">

<g transform="translate(0.000000,225.000000) scale(0.100000,-0.100000)"
fill="#000000" stroke="none">
<path d="M925 1930 c-160 -32 -156 -37 35 -42 200 -6 283 -23 415 -87 181 -86
312 -225 389 -411 l27 -65 -6 50 c-11 78 -51 194 -92 264 -82 138 -258 263
-418 296 -93 20 -240 17 -350 -5z"/>
<path d="M800 1871 l-35 -8 45 -2 c161 -4 552 -191 711 -340 166 -154 212
-316 153 -536 -11 -43 50 72 72 134 96 271 -123 567 -511 694 -153 51 -352 77
-435 58z"/>
<path d="M780 1810 c60 -42 144 -84 266 -135 56 -23 122 -54 147 -69 135 -78
288 -236 351 -360 60 -118 56 -253 -10 -343 -41 -57 -78 -132 -69 -141 3 -3
39 27 80 68 101 101 118 148 119 320 1 120 0 128 -29 185 -79 158 -375 363
-662 458 -61 20 -140 40 -175 43 l-63 6 45 -32z"/>
<path d="M748 1783 c52 -66 97 -100 204 -154 229 -115 393 -242 453 -350 26
-47 30 -63 29 -129 -2 -76 -11 -108 -79 -269 -21 -49 -26 -75 -22 -109 7 -63
18 -70 70 -45 40 19 43 23 39 55 -3 26 4 45 34 88 54 79 77 144 78 221 0 54
-6 77 -35 140 -61 128 -195 275 -314 344 -22 13 -103 49 -180 80 -142 57 -212
94 -275 143 l-35 27 33 -42z"/>
<path d="M674 1751 c6 -90 34 -125 196 -247 159 -119 246 -208 291 -299 57
-116 42 -174 -73 -289 -39 -37 -81 -84 -94 -103 -25 -37 -31 -91 -14 -123 12
-23 61 -40 114 -40 59 0 68 8 54 52 -9 31 -7 42 16 89 14 30 42 79 61 109 40
62 65 136 65 190 0 125 -130 284 -365 447 -177 123 -227 173 -246 247 -6 22
-7 12 -5 -33z"/>
<path d="M613 1756 c-79 -101 -3 -259 187 -386 125 -84 218 -160 240 -195 48
-78 5 -215 -88 -278 -89 -62 -112 -87 -112 -121 0 -37 19 -58 73 -81 44 -18
53 -19 39 -2 -11 13 -16 46 -14 83 1 11 42 61 91 110 48 49 98 108 110 131 29
58 27 121 -5 186 -37 73 -168 199 -296 286 -141 96 -188 153 -198 246 l-5 50
-22 -29z"/>
<path d="M710 1771 c0 -31 76 -101 222 -202 265 -185 366 -301 383 -444 11
-84 -2 -124 -76 -251 -64 -108 -70 -123 -66 -162 3 -24 8 -46 11 -49 8 -8 116
13 128 25 5 5 4 21 -2 36 -20 54 -12 109 29 187 56 109 74 170 69 242 -2 34
-12 79 -23 100 -46 97 -193 214 -445 353 -79 44 -144 88 -177 121 -29 28 -53
48 -53 44z"/>
<path d="M541 1665 c-21 -50 -24 -93 -11 -141 23 -79 77 -135 233 -238 79 -52
158 -111 176 -132 31 -35 33 -41 29 -94 -5 -74 -21 -97 -113 -165 -80 -59 -88
-76 -60 -125 l14 -25 1 28 c0 43 15 63 78 106 156 105 191 221 95 312 -21 20
-85 67 -143 104 -182 119 -265 221 -280 344 -7 56 -7 56 -19 26z"/>
<path d="M477 1570 c-13 -46 -7 -86 19 -138 28 -57 79 -104 218 -202 49 -35
107 -81 128 -102 64 -64 51 -115 -57 -214 -46 -43 -55 -56 -54 -85 l0 -34 16
31 c9 18 41 48 75 69 32 21 72 54 89 74 25 30 29 44 29 93 0 52 -3 61 -33 90
-18 19 -69 56 -113 83 -224 138 -286 203 -303 314 -6 40 -8 43 -14 21z"/>
<path d="M590 1250 c0 -5 -14 -25 -31 -45 l-32 -36 42 -16 c41 -16 42 -17 36
-55 -6 -35 -4 -39 22 -50 38 -17 39 -18 23 -29 -13 -7 -13 -10 -1 -18 10 -7
12 -23 6 -71 -6 -48 -4 -64 6 -71 20 -12 39 -11 39 2 0 7 34 47 75 90 41 43
75 87 75 98 0 31 -37 68 -140 141 -94 68 -120 81 -120 60z"/>
<path d="M519 515 c-29 -15 -59 -70 -59 -105 0 -78 87 -143 161 -121 57 17 89
61 89 123 0 44 -4 54 -34 84 -30 30 -40 34 -82 34 -27 -1 -61 -7 -75 -15z
m113 -62 c39 -35 11 -103 -43 -103 -35 0 -59 24 -59 57 0 55 62 83 102 46z"/>
<path d="M721 516 c-18 -22 -2 -46 30 -46 l29 0 0 -74 c0 -90 5 -106 35 -106
30 0 35 16 35 106 0 71 1 74 24 74 33 0 53 25 36 45 -17 20 -172 21 -189 1z"/>
<path d="M954 496 c-30 -30 -34 -40 -34 -84 0 -94 79 -150 165 -118 52 21 78
56 79 112 2 78 -46 124 -129 124 -40 0 -52 -5 -81 -34z m123 -34 c33 -21 32
-82 -1 -104 -36 -25 -96 6 -96 50 0 48 57 79 97 54z"/>
<path d="M1187 524 c-12 -12 -8 -32 24 -135 29 -94 32 -99 58 -99 24 0 29 6
42 48 l15 47 15 -45 c11 -37 19 -46 41 -48 25 -3 27 1 58 98 35 115 35 135 0
135 -20 0 -26 -7 -37 -44 -7 -24 -14 -46 -17 -48 -2 -2 -12 18 -21 46 -14 42
-21 51 -40 51 -18 0 -26 -8 -35 -37 -6 -21 -14 -45 -17 -53 -3 -9 -12 5 -22
35 -17 48 -44 69 -64 49z"/>
<path d="M1505 508 c-3 -13 -5 -66 -3 -118 3 -92 4 -95 27 -98 13 -2 28 2 32
10 12 19 11 186 -1 209 -15 26 -48 25 -55 -3z"/>
<path d="M1622 518 c-16 -16 -17 -199 0 -216 7 -7 42 -12 89 -12 62 0 78 3 83
16 11 29 -13 44 -70 44 l-53 0 -3 87 c-2 69 -6 88 -18 91 -9 1 -21 -3 -28 -10z"/>
</g>
</svg>
