<?xml version="1.0" standalone="no"?>
<!DOCTYPE svg PUBLIC "-//W3C//DTD SVG 20010904//EN"
 "http://www.w3.org/TR/2001/REC-SVG-20010904/DTD/svg10.dtd">
<svg version="1.0" xmlns="http://www.w3.org/2000/svg"
 width="225.000000pt" height="225.000000pt" viewBox="0 0 225.000000 225.000000"
 preserveAspectRatio="xMidYMid meet">

<g transform="translate(0.000000,225.000000) scale(0.100000,-0.100000)"
fill="#000000" stroke="none">
<path d="M0 1125 l0 -1125 1125 0 1125 0 0 1125 0 1125 -1125 0 -1125 0 0
-1125z m1190 416 c42 -22 60 -53 60 -103 0 -49 -13 -81 -46 -111 -24 -23 -26
-28 -15 -57 15 -45 15 -47 -16 -55 -15 -3 -53 -23 -85 -42 -32 -20 -61 -33
-64 -30 -4 3 3 21 15 40 11 19 21 48 21 65 0 26 -4 31 -27 34 -23 2 -29 9 -31
33 -2 16 -9 33 -14 37 -8 4 -8 14 0 35 15 37 17 64 7 86 -4 10 -3 29 3 42 20
44 131 59 192 26z m220 -448 l0 -76 26 24 c14 13 20 25 15 27 -24 8 -9 22 24
22 19 0 35 -4 35 -10 0 -5 -6 -10 -13 -10 -8 0 -24 -11 -37 -25 l-23 -24 37
-46 c36 -43 36 -45 14 -45 -15 0 -31 12 -48 38 -23 34 -25 35 -28 14 -2 -13 2
-30 8 -38 11 -12 6 -14 -31 -14 -35 1 -40 3 -26 11 14 8 17 25 17 109 0 82 -3
100 -15 100 -24 0 -17 18 8 22 12 2 25 2 30 0 4 -2 7 -37 7 -79z m-790 27 c0
-47 1 -50 19 -40 46 24 71 -3 71 -74 0 -28 5 -57 12 -64 9 -9 4 -12 -26 -12
-32 0 -37 2 -27 14 7 8 11 36 9 63 -3 44 -5 48 -30 51 -27 3 -28 2 -28 -50 0
-30 5 -59 12 -66 9 -9 3 -12 -27 -12 -30 0 -36 3 -27 12 15 15 17 208 1 208
-5 0 -7 5 -4 10 3 6 15 10 26 10 16 0 19 -7 19 -50z m1337 35 c8 -23 -2 -28
-26 -13 -18 11 -23 11 -31 -2 -18 -28 -12 -60 13 -61 l22 -2 -22 -4 c-21 -4
-23 -10 -23 -63 0 -46 4 -61 18 -69 13 -8 8 -10 -27 -11 -35 0 -42 3 -33 12
16 16 16 128 0 129 -10 0 -10 2 0 6 6 2 12 15 12 28 0 44 82 86 97 50z m-1559
-1 c15 -4 22 -14 22 -30 0 -29 -16 -32 -25 -4 -6 20 -29 25 -59 14 -30 -11
-16 -42 34 -78 40 -29 50 -42 50 -64 0 -43 -29 -64 -81 -60 -41 3 -44 5 -47
33 l-2 30 16 -22 c19 -27 69 -31 78 -7 6 17 -9 54 -23 54 -18 0 -71 59 -71 79
0 45 49 70 108 55z m151 -73 c9 -6 11 -16 7 -27 -7 -18 -8 -18 -21 -1 -32 43
-79 -14 -59 -70 8 -23 16 -29 47 -31 48 -4 38 -22 -13 -22 -102 0 -92 156 10
159 8 0 21 -3 29 -8z m500 0 c9 -6 16 -32 19 -70 2 -34 9 -61 14 -61 5 0 7 -4
4 -9 -4 -5 -32 -9 -64 -8 -52 2 -57 4 -60 26 -4 29 20 51 55 51 18 0 23 6 23
25 0 32 -28 45 -45 22 -16 -22 -25 -21 -25 2 0 26 51 40 79 22z m101 -1 c0 -7
6 -7 19 0 29 15 41 12 41 -9 0 -23 -16 -36 -25 -21 -3 5 -13 10 -21 10 -22 0
-19 -99 4 -116 15 -12 12 -13 -27 -14 -35 0 -42 3 -33 12 16 16 16 115 0 124
-8 5 -6 10 8 15 27 11 34 10 34 -1z m485 -15 c32 -31 32 -75 2 -111 -49 -56
-127 -24 -127 53 0 41 37 83 75 83 14 0 37 -11 50 -25z m114 14 c36 20 81 -21
81 -74 0 -28 -51 -75 -81 -75 -25 0 -29 -4 -29 -30 0 -17 7 -33 18 -39 13 -8
7 -10 -28 -10 -25 0 -39 3 -32 6 15 6 17 203 2 203 -5 0 -10 4 -10 9 0 13 43
19 51 8 4 -5 16 -4 28 2z m-966 -5 c-8 -4 -7 -17 4 -51 l16 -46 19 51 c11 29
23 52 28 52 4 0 14 -23 21 -50 14 -54 20 -54 38 -1 9 27 8 36 -1 43 -8 5 1 8
22 8 20 0 30 -4 23 -8 -7 -4 -23 -37 -36 -72 -14 -35 -29 -66 -34 -67 -6 -2
-16 17 -23 41 -14 53 -25 51 -41 -5 -7 -22 -17 -38 -22 -36 -5 1 -20 31 -33
66 -12 35 -28 68 -36 72 -8 6 2 8 27 8 22 0 35 -3 28 -5z m546 -16 c-7 -13
-25 -42 -40 -65 -16 -23 -29 -43 -29 -45 0 -13 53 2 65 18 14 18 14 18 15 -8
0 -27 -1 -28 -60 -28 -33 0 -60 2 -60 5 0 3 18 34 40 68 36 58 38 62 19 65
-11 2 -27 -5 -34 -15 -14 -17 -14 -17 -15 5 0 20 5 22 55 22 55 0 55 0 44 -22z
m-679 -286 c28 -22 22 -67 -10 -77 -54 -17 -93 42 -50 77 12 10 26 18 30 18 4
0 18 -8 30 -18z m440 -4 c0 -5 -9 -6 -20 -3 -29 9 -25 -10 5 -23 14 -6 25 -16
25 -21 0 -18 -30 -33 -55 -27 -33 8 -24 25 10 18 32 -6 32 6 0 18 -26 10 -35
45 -12 53 17 5 47 -4 47 -15z m140 0 c0 -5 -9 -6 -20 -3 -11 3 -20 2 -20 -4 0
-5 9 -12 19 -16 46 -14 23 -63 -24 -51 -14 4 -23 11 -20 15 3 5 14 7 25 4 11
-3 20 -1 20 5 0 5 -9 12 -20 15 -22 6 -28 43 -7 50 17 5 47 -4 47 -15z m250 2
c11 -11 20 -25 20 -32 0 -20 -32 -48 -55 -48 -46 0 -62 57 -23 84 29 20 34 20
58 -4z m-1116 -6 c8 -21 -11 -44 -35 -44 -11 0 -19 -7 -19 -15 0 -8 -4 -15
-10 -15 -5 0 -10 20 -10 45 0 44 0 45 34 45 22 0 36 -6 40 -16z m144 -11 c2
-13 -2 -23 -8 -23 -8 0 -8 -6 0 -20 12 -23 -2 -27 -20 -5 -7 8 -16 15 -21 15
-5 0 -9 -7 -9 -15 0 -8 -4 -15 -10 -15 -5 0 -10 21 -10 46 l0 45 38 -3 c30 -2
38 -7 40 -25z m280 20 c-16 -2 -28 -10 -28 -18 0 -8 7 -11 20 -8 11 3 20 0 20
-6 0 -6 -9 -11 -20 -11 -13 0 -20 -7 -20 -20 0 -11 -4 -20 -10 -20 -5 0 -10
20 -10 45 l0 45 38 -1 c30 -2 32 -3 10 -6z m140 0 c-32 -5 -38 -23 -9 -23 11
0 23 -4 26 -10 4 -6 -5 -10 -19 -10 -14 0 -26 -4 -26 -10 0 -5 11 -10 25 -10
14 0 25 -4 25 -10 0 -5 -16 -10 -35 -10 -35 0 -35 0 -35 45 l0 45 38 -1 c30
-2 32 -3 10 -6z m402 -38 c0 -25 -4 -45 -10 -45 -5 0 -10 20 -10 45 0 25 5 45
10 45 6 0 10 -20 10 -45z m275 18 l23 -28 -5 28 c-3 16 -1 27 6 27 6 0 11 -19
11 -45 0 -25 -3 -45 -7 -45 -5 0 -18 15 -30 33 l-23 32 0 -33 c0 -17 -4 -32
-10 -32 -5 0 -10 20 -10 45 0 52 11 56 45 18z m180 -13 c10 -22 15 -44 10 -48
-4 -4 -10 -1 -12 6 -3 6 -15 12 -28 12 -13 0 -25 -6 -28 -12 -2 -7 -7 -10 -11
-7 -9 9 25 89 39 89 7 0 20 -18 30 -40z m105 5 c0 -28 4 -35 19 -35 11 0 23
-4 26 -10 4 -6 -8 -10 -29 -10 -36 0 -36 0 -36 45 0 25 5 45 10 45 6 0 10 -16
10 -35z"/>
<path d="M1003 993 c-7 -2 -13 -13 -13 -24 0 -14 7 -19 25 -19 20 0 25 5 25
25 0 24 -11 29 -37 18z"/>
<path d="M1550 1051 c-16 -30 -12 -66 9 -92 16 -20 23 -22 38 -13 22 13 30 88
12 110 -16 20 -46 17 -59 -5z"/>
<path d="M1720 1004 l0 -55 32 3 c24 2 34 9 41 31 12 37 -13 77 -48 77 -24 0
-25 -3 -25 -56z"/>
<path d="M600 755 c-17 -20 -5 -45 20 -45 11 0 23 7 26 15 6 15 -11 45 -26 45
-4 0 -13 -7 -20 -15z"/>
<path d="M1432 761 c-20 -12 -10 -46 14 -49 25 -4 40 24 23 44 -13 16 -19 17
-37 5z"/>
<path d="M316 763 c-11 -11 -6 -23 8 -23 8 0 17 4 20 9 7 10 -19 23 -28 14z"/>
<path d="M457 764 c-13 -13 -7 -24 14 -24 11 0 19 5 17 12 -5 14 -22 21 -31
12z"/>
<path d="M1750 745 c0 -8 4 -15 10 -15 5 0 7 7 4 15 -4 8 -8 15 -10 15 -2 0
-4 -7 -4 -15z"/>
</g>
</svg>
