<?xml version="1.0" standalone="no"?>
<!DOCTYPE svg PUBLIC "-//W3C//DTD SVG 20010904//EN"
 "http://www.w3.org/TR/2001/REC-SVG-20010904/DTD/svg10.dtd">
<svg version="1.0" xmlns="http://www.w3.org/2000/svg"
 width="249.000000pt" height="140.000000pt" viewBox="0 0 249.000000 140.000000"
 preserveAspectRatio="xMidYMid meet">

<g transform="translate(0.000000,140.000000) scale(0.100000,-0.100000)"
fill="#000000" stroke="none">
<path d="M65 983 c8 -27 38 -126 66 -220 l52 -173 37 0 38 0 52 150 c29 83 56
150 59 150 4 0 28 -65 54 -145 l48 -145 44 0 c33 0 45 4 49 18 8 28 117 386
121 400 3 8 -9 12 -38 12 l-42 0 -45 -151 c-24 -84 -46 -148 -48 -143 -2 5
-25 70 -50 144 l-47 135 -45 0 -45 0 -47 -135 c-25 -74 -48 -139 -50 -144 -2
-4 -23 60 -47 143 l-44 151 -43 0 -43 0 14 -47z"/>
<path d="M773 1020 c-38 -15 -43 -42 -43 -209 0 -155 1 -161 24 -188 l24 -28
172 -4 c95 -1 175 1 180 5 4 5 3 24 -2 41 l-8 32 -153 3 -152 3 -3 53 -3 52
115 0 116 0 0 40 0 40 -116 0 -115 0 3 43 3 42 145 3 c156 3 170 7 170 59 l0
23 -167 -1 c-93 0 -178 -4 -190 -9z"/>
<path d="M1190 832 c0 -253 -14 -236 191 -240 147 -4 149 -4 149 18 0 12 -5
30 -10 41 -10 17 -22 19 -125 19 -103 0 -115 2 -125 19 -6 11 -10 89 -10 180
l0 161 -35 0 -35 0 0 -198z"/>
<path d="M1570 836 c0 -253 -10 -239 169 -244 l131 -4 15 35 c8 20 15 39 15
41 0 3 -55 7 -122 8 l-123 3 -3 178 -2 177 -40 0 -40 0 0 -194z"/>
<path d="M2107 1013 c-8 -10 -54 -106 -101 -213 -91 -210 -91 -207 -25 -209
20 -1 29 8 47 44 l22 45 130 0 131 0 20 -45 20 -45 42 6 c23 4 43 7 44 8 5 3
-171 394 -184 409 -12 12 -31 17 -73 17 -42 0 -61 -5 -73 -17z m132 -153 c22
-50 41 -98 41 -107 0 -13 -13 -15 -95 -11 -52 2 -97 7 -101 11 -6 6 3 31 56
150 32 72 49 64 99 -43z"/>
<path d="M771 428 c1 -35 4 -51 6 -36 4 24 9 27 46 30 31 2 43 8 45 21 6 29
-17 47 -59 47 l-39 0 1 -62z m76 41 c20 -20 3 -39 -33 -39 -30 0 -34 3 -34 25
0 21 5 25 28 25 15 0 33 -5 39 -11z"/>
<path d="M900 430 c0 -33 4 -60 10 -60 6 0 10 11 10 25 0 18 5 25 19 25 11 0
28 -11 39 -25 26 -33 37 -32 16 1 -13 19 -14 28 -5 37 16 16 14 44 -5 51 -9 3
-31 6 -50 6 l-34 0 0 -60z m79 41 c21 -13 -4 -41 -35 -41 -19 0 -24 5 -24 25
0 19 5 25 23 25 12 0 28 -4 36 -9z"/>
<path d="M1047 472 c-38 -42 -8 -102 50 -102 55 0 85 67 45 103 -25 22 -75 21
-95 -1z m81 -4 c7 -7 12 -25 12 -40 0 -54 -79 -61 -93 -9 -11 44 50 80 81 49z"/>
<path d="M1202 428 c0 -35 3 -49 5 -31 4 28 8 32 41 36 l37 4 -37 1 c-30 2
-38 6 -38 21 0 16 8 21 43 24 l42 4 -47 1 -48 2 2 -62z"/>
<path d="M1320 430 l0 -60 50 0 c30 0 50 4 50 11 0 6 -7 8 -16 5 -26 -10 -64
4 -64 24 0 14 9 20 38 23 l37 4 -37 1 c-30 2 -38 6 -38 21 0 16 8 21 43 24 40
3 40 4 -10 5 l-53 2 0 -60z"/>
<path d="M1460 475 c-19 -23 -5 -42 34 -49 21 -4 36 -13 36 -21 0 -17 -34 -28
-61 -20 -15 5 -19 4 -15 -4 8 -12 45 -15 70 -5 9 3 16 17 16 30 0 19 -8 25
-41 34 -35 10 -39 13 -28 26 8 10 24 14 41 12 15 -3 28 -1 28 4 0 14 -67 9
-80 -7z"/>
<path d="M1582 481 c-23 -14 -9 -44 25 -53 18 -5 35 -13 39 -19 10 -17 -17
-30 -49 -24 -17 3 -26 1 -22 -5 10 -16 61 -12 76 6 18 21 0 48 -36 54 -16 3
-30 10 -32 17 -5 15 31 26 58 18 15 -5 19 -4 15 4 -8 13 -55 14 -74 2z"/>
<path d="M1703 430 c0 -36 2 -50 4 -32 2 17 2 47 0 65 -2 17 -4 3 -4 -33z"/>
<path d="M1767 472 c-38 -42 -8 -102 50 -102 54 0 85 67 47 104 -21 22 -77 20
-97 -2z m79 0 c23 -14 25 -49 5 -73 -16 -20 -23 -22 -47 -14 -50 18 -42 95 10
95 11 0 26 -4 32 -8z"/>
<path d="M1922 430 c1 -59 2 -61 5 -16 l4 49 50 -49 49 -48 -2 64 c-1 59 -2
61 -5 16 l-4 -49 -50 49 -49 48 2 -64z"/>
<path d="M2091 430 c-18 -33 -28 -60 -23 -60 6 0 12 7 16 15 8 22 82 20 95 -2
5 -10 12 -15 15 -12 7 7 -53 119 -63 119 -5 0 -23 -27 -40 -60z m57 15 c16
-35 16 -35 -18 -35 -16 0 -30 2 -30 5 0 11 24 55 30 55 4 0 12 -11 18 -25z"/>
<path d="M2232 433 l-2 -63 45 0 c25 0 45 5 45 10 0 6 -18 10 -39 10 l-40 0
-4 53 -3 52 -2 -62z"/>
<path d="M2350 475 c-10 -12 -10 -18 0 -30 7 -8 16 -15 21 -15 4 0 20 -5 34
-10 23 -9 25 -13 14 -26 -9 -11 -23 -14 -48 -9 -26 4 -32 3 -21 -4 22 -16 66
-13 80 4 18 22 5 43 -32 53 -44 11 -44 37 0 37 17 0 32 3 32 7 0 14 -67 8 -80
-7z"/>
</g>
</svg>
